<svg width="24" height="24" viewBox="0 0 24 24" fill="none" xmlns="http://www.w3.org/2000/svg">
<rect width="24" height="24" rx="4" fill="#4452E3"/>
<path d="M17.3546 8.14689C17.4012 8.19334 17.4381 8.24851 17.4633 8.30926C17.4886 8.37001 17.5015 8.43513 17.5015 8.50089C17.5015 8.56666 17.4886 8.63178 17.4633 8.69253C17.4381 8.75327 17.4012 8.80845 17.3546 8.85489L10.3546 15.8549C10.3082 15.9015 10.253 15.9384 10.1923 15.9636C10.1315 15.9888 10.0664 16.0018 10.0006 16.0018C9.93486 16.0018 9.86974 15.9888 9.809 15.9636C9.74825 15.9384 9.69308 15.9015 9.64663 15.8549L6.14663 12.3549C6.05274 12.261 6 12.1337 6 12.0009C6 11.8681 6.05274 11.7408 6.14663 11.6469C6.24052 11.553 6.36786 11.5003 6.50063 11.5003C6.63341 11.5003 6.76075 11.553 6.85463 11.6469L10.0006 14.7939L16.6466 8.14689C16.6931 8.10033 16.7483 8.06339 16.809 8.03818C16.8697 8.01297 16.9349 8 17.0006 8C17.0664 8 17.1315 8.01297 17.1923 8.03818C17.253 8.06339 17.3082 8.10033 17.3546 8.14689Z" fill="white"/>
</svg>
